Coordinates
version=1
nRows=32
nColumns=22
inDegrees=yes

Units are S.I. units (second, meters, Newtons, ...)
If the header above contains a line with 'inDegrees', this indicates whether rotational values are in degrees (yes) or radians (no).

endheader
time	pelvis_tilt	pelvis_list	pelvis_rotation	pelvis_tx	pelvis_ty	pelvis_tz	hip_flexion_r	hip_adduction_r	hip_rotation_r	knee_angle_r	ankle_angle_r	subtalar_angle_r	hip_flexion_l	hip_adduction_l	hip_rotation_l	knee_angle_l	ankle_angle_l	subtalar_angle_l	lumbar_extension	lumbar_bending	lumbar_rotation
      3.97000000	     -1.60796993	      0.45935964	      8.53603585	      0.17954206	      0.97592312	     -0.95966428	     29.76186051	     -3.62442759	    -23.11016047	    -22.73320071	      2.40638807	     -2.39448808	    -17.47801935	     -5.24535538	    -11.77083157	    -18.53803263	      4.42356092	     17.42568781	     -5.17316526	      1.98924000	     -9.90916499
      3.98000000	     -1.72315165	      0.07337246	      8.01056691	      0.19235726	      0.97761265	     -0.95687046	     29.63337703	     -2.75454036	    -22.20452705	    -23.35158969	      2.29691329	     -2.72596573	    -17.01824610	     -5.88615037	    -11.98274327	    -20.11970772	      2.33850613	     17.66412938	     -4.77794718	      2.41897645	     -9.87383888
      3.99000000	     -1.84003235	     -0.27535600	      7.48189355	      0.20499588	      0.97931687	     -0.95392563	     29.47509819	     -1.87138593	    -21.19182956	    -23.91300530	      2.27697804	     -3.18913000	    -16.41460949	     -6.52339971	    -12.23493403	    -21.90700665	      0.23062685	     17.75660576	     -4.40565015	      2.78905565	     -9.87606694
      4.00000000	     -1.95038176	     -0.57587628	      6.98358375	      0.21744897	      0.98100718	     -0.95092670	     29.26490174	     -1.02386826	    -20.19535697	    -24.41170443	      2.35536201	     -3.84599930	    -15.67272949	     -7.15436319	    -12.47957062	    -23.89914302	     -1.85994626	     17.66320166	     -4.06213035	      3.09319588	     -9.93278413
      4.01000000	     -2.01373059	     -0.83785362	      6.50479553	      0.22969542	      0.98272394	     -0.94787997	     28.95071364	     -0.20321611	    -19.22242343	    -24.82531705	      2.47417322	     -4.40853900	    -14.84650712	     -7.79138418	    -12.74061334	    -26.07481492	     -3.84593030	     17.52144896	     -3.79517934	      3.35379481	    -10.02605067
      4.02000000	     -2.05102524	     -1.06323059	      6.09064904	      0.24172835	      0.98439917	     -0.94484972	     28.55348103	      0.55161435	    -18.38556989	    -25.16155133	      2.68560119	     -5.08811388	    -13.90365859	     -8.44026039	    -12.94174045	    -28.43673077	     -5.66717456	     17.22599629	     -3.57620828	      3.56270463	    -10.17900639
      4.03000000	     -2.04501389	     -1.26049664	      5.73642149	      0.25352693	      0.98606441	     -0.94183657	     28.04947951	      1.24811678	    -17.69180460	    -25.40135044	      2.94789282	     -5.74871930	    -12.86915492	     -9.10229405	    -13.07360227	    -30.95818652	     -7.24562239	     16.85641152	     -3.42821599	      3.73026143	    -10.36372598
      4.04000000	     -1.99802811	     -1.43376781	      5.44847461	      0.26508209	      0.98771700	     -0.93887591	     27.44316024	      1.88514928	    -17.13419587	    -25.54378835	      3.27616577	     -6.41925360	    -11.75289094	     -9.75881000	    -13.07469320	    -33.59288426	     -8.51169892	     16.38538891	     -3.34725442	      3.86602526	    -10.58559217
      4.05000000	     -1.91186590	     -1.58711851	      5.20531111	      0.27636999	      0.98936265	     -0.93596807	     26.75209096	      2.47076763	    -16.69155592	    -25.60827914	      3.63766453	     -7.06982981	    -10.57023545	    -10.38003631	    -12.91131998	    -36.28609633	     -9.42227641	     15.84398956	     -3.33781846	      3.97547231	    -10.79245573
      4.06000000	     -1.81219573	     -1.73977185	      5.00038661	      0.28738180	      0.99098067	     -0.93310929	     26.00167477	      3.02362347	    -16.36791768	    -25.57831592	      3.98013663	     -7.60401613	     -9.29450614	    -10.97546867	    -12.61061432	    -39.00793755	     -9.92314109	     15.35495429	     -3.36612801	      4.07786716	    -10.98607864
      4.07000000	     -1.70201038	     -1.88216574	      4.82146694	      0.29811088	      0.99257695	     -0.93031327	     25.20683329	      3.53734317	    -16.14106988	    -25.47247477	      4.31515609	     -8.04775016	     -7.94172158	    -11.50690785	    -12.15651084	    -41.69824465	    -10.01329747	     14.90606777	     -3.43016885	      4.16683028	    -11.16588196
      4.08000000	     -1.59803809	     -2.00624078	      4.63825472	      0.30856584	      0.99414720	     -0.92755576	     24.38801896	      4.01947313	    -15.95884467	    -25.29200613	      4.63539741	     -8.46150158	     -6.51986168	    -11.93106089	    -11.54338018	    -44.29763441	     -9.73634137	     14.44161164	     -3.51154881	      4.23124442	    -11.27486949
      4.09000000	     -1.50430785	     -2.11153440	      4.43441939	      0.31877068	      0.99569371	     -0.92482453	     23.55390017	      4.47414994	    -15.80185842	    -25.04618544	      4.93890876	     -8.81141688	     -5.04270213	    -12.24848774	    -10.83721437	    -46.77127805	     -9.14069274	     14.02385360	     -3.60126022	      4.27310794	    -11.31994194
      4.10000000	     -1.42327935	     -2.19706850	      4.18936075	      0.32874203	      0.99721435	     -0.92207226	     22.71375401	      4.90942933	    -15.64186305	    -24.74766319	      5.20752188	     -9.09891349	     -3.52815246	    -12.46101662	    -10.08915027	    -49.08678950	     -8.30515752	     13.68296669	     -3.69401714	      4.28855802	    -11.29335979
      4.11000000	     -1.35485534	     -2.25726600	      3.88500353	      0.33851661	      0.99871582	     -0.91926700	     21.86663719	      5.32738223	    -15.44939681	    -24.39999203	      5.44439705	     -9.33797449	     -2.00006340	    -12.57238533	     -9.35428882	    -51.21390099	     -7.31496306	     13.43903023	     -3.78375165	      4.27192429	    -11.18699822
      4.12000000	     -1.30969536	     -2.29686143	      3.51191376	      0.34810795	      1.00018276	     -0.91635860	     21.02540281	      5.73805070	    -15.20195062	    -24.00511187	      5.63746298	     -9.55458444	     -0.45967005	    -12.59940857	     -8.65871782	    -53.13756138	     -6.26130751	     13.30646123	     -3.85748941	      4.22185162	    -11.00363606
      4.13000000	     -1.27372846	     -2.30562104	      3.05819865	      0.35754312	      1.00163224	     -0.91330599	     20.17616967	      6.13652156	    -14.88409690	    -23.57283967	      5.80277891	     -9.75273556	      1.05922611	    -12.54184224	     -8.02808772	    -54.83620662	     -5.18740828	     13.30253071	     -3.92703719	      4.12558614	    -10.74008139
      4.14000000	     -1.24036185	     -2.29118014	      2.52440731	      0.36685669	      1.00306269	     -0.91010347	     19.30830917	      6.52974606	    -14.48191049	    -23.10131909	      5.94440036	     -9.92947734	      2.54286067	    -12.42437323	     -7.47992497	    -56.30641454	     -4.12814891	     13.39836977	     -3.99250177	      3.99480504	    -10.40589021
      4.15000000	     -1.21142365	     -2.24779837	      1.91205221	      0.37604294	      1.00445814	     -0.90673517	     18.42908879	      6.90810528	    -14.00079804	    -22.60119431	      6.06897194	    -10.10443080	      3.98946953	    -12.24235747	     -6.99673343	    -57.54336962	     -3.10583181	     13.57938955	     -4.05374632	      3.81910816	     -9.99896418
      4.16000000	     -1.16070184	     -2.16892534	      1.23305776	      0.38512325	      1.00584186	     -0.90323256	     17.51596874	      7.25304435	    -13.46425234	    -22.09050440	      6.20301875	    -10.25102988	      5.36568076	    -11.99393043	     -6.57073558	    -58.54068195	     -2.09959412	     13.73668872	     -4.13756741	      3.59512440	     -9.52601866
      4.17000000	     -1.15017603	     -2.08302817	      0.49392378	      0.39405679	      1.00711748	     -0.89954229	     16.62570715	      7.60538449	    -12.81532362	    -21.53624781	      6.28866645	    -10.44053410	      6.75923500	    -11.71888554	     -6.17288484	    -59.32179597	     -1.20746228	     14.07294978	     -4.17493723	      3.34925690	     -9.02847529
      4.18000000	     -1.12224782	     -1.97209170	     -0.29748421	      0.40292278	      1.00835462	     -0.89573046	     15.70233613	      7.92439681	    -12.13695945	    -20.96606297	      6.39975885	    -10.59101546	      8.08139525	    -11.39832132	     -5.81275821	    -59.85847495	     -0.32926701	     14.33135315	     -4.22230837	      3.06662497	     -8.46559648
      4.19000000	     -1.09354979	     -1.84603159	     -1.10930608	      0.41165351	      1.00950251	     -0.89183693	     14.78334375	      8.21211270	    -11.43124617	    -20.40488696	      6.50286771	    -10.74965271	      9.37585938	    -11.03703302	     -5.43008402	    -60.17882248	      0.52853705	     14.68801830	     -4.27242980	      2.76002678	     -7.89213951
      4.20000000	     -1.07147564	     -1.72080135	     -1.96945835	      0.42028757	      1.01054886	     -0.88780884	     13.86483687	      8.49560928	    -10.65553387	    -19.83514759	      6.62323441	    -10.86320452	     10.63238853	    -10.67143649	     -5.07410898	    -60.27413515	      1.32672773	     14.91105579	     -4.31099839	      2.44655832	     -7.26416079
      4.21000000	     -1.04639191	     -1.58779670	     -2.82791481	      0.42878203	      1.01149201	     -0.88375165	     12.96046966	      8.74629040	     -9.86768291	    -19.29297691	      6.73844350	    -10.98084045	     11.85947994	    -10.26990229	     -4.65865254	    -60.15998926	      2.11802324	     15.23371459	     -4.35849907	      2.12272418	     -6.64039225
      4.22000000	     -1.03388167	     -1.45717701	     -3.70377609	      0.43721334	      1.01231129	     -0.87962690	     12.07242857	      8.97911326	     -9.07614654	    -18.75801211	      6.87498700	    -11.06727424	     13.05149748	     -9.86645550	     -4.23606895	    -59.82517618	      2.88733203	     15.44261497	     -4.38320109	      1.79847983	     -5.99465475
      4.23000000	     -1.02421415	     -1.32852503	     -4.57674978	      0.44553135	      1.01300664	     -0.87549038	     11.20818188	      9.18849241	     -8.28277076	    -18.25637055	      7.01736531	    -11.13741828	     14.20734012	     -9.44845855	     -3.76380499	    -59.28506976	      3.64314791	     15.60693141	     -4.40769460	      1.47839140	     -5.35899251
      4.24000000	     -1.02170493	     -1.20599915	     -5.44992861	      0.45374106	      1.01357037	     -0.87134739	     10.37846037	      9.37936465	     -7.49246210	    -17.79822718	      7.16860701	    -11.19298064	     15.32151647	     -9.02974799	     -3.25983843	    -58.53863790	      4.38551437	     15.69655585	     -4.42862510	      1.17062022	     -4.72968421
      4.25000000	     -1.02382386	     -1.08683452	     -6.32656778	      0.46183091	      1.01399037	     -0.86720230	      9.57808092	      9.55064317	     -6.69952003	    -17.37621576	      7.33071087	    -11.23974040	     16.39491665	     -8.61674361	     -2.73838895	    -57.60807050	      5.08630450	     15.71041345	     -4.45266240	      0.87225229	     -4.11486275
      4.26000000	     -1.03248146	     -0.97194316	     -7.21197122	      0.46982596	      1.01427010	     -0.86302647	      8.81097864	      9.70634910	     -5.91039898	    -16.99661574	      7.51177227	    -11.28457500	     17.41197594	     -8.22406689	     -2.22554061	    -56.48036164	      5.74158895	     15.61695305	     -4.47180214	      0.57998524	     -3.50445204
      4.27000000	     -1.03987997	     -0.85773693	     -8.10848365	      0.47770509	      1.01440731	     -0.85886003	      8.07682400	      9.84054136	     -5.12434999	    -16.67023402	      7.70947504	    -11.33465773	     18.36736857	     -7.84669831	     -1.73218859	    -55.17533929	      6.34379534	     15.37371963	     -4.50190711	      0.29877256	     -2.90030001
      4.28000000	     -1.06383275	     -0.74976660	     -9.01368969	      0.48548323	      1.01436496	     -0.85469325	      7.40168252	      9.96020712	     -4.38007576	    -16.40920610	      7.93394527	    -11.39716481	     19.27660059	     -7.50467464	     -1.27839774	    -53.70472220	      6.93688568	     15.05122159	     -4.51731277	      0.03244114	     -2.29911671
